<svg width="28" height="27" viewBox="0 0 28 27" fill="none" xmlns="http://www.w3.org/2000/svg">
<path d="M7.98666 15.1005C7.98666 15.2603 6.13602 15.8672 5.0117 15.1005C4.56397 14.7917 4.22568 14.2593 4.31523 14.1422C4.37492 14.0783 4.57393 14.1422 4.88237 14.2487C5.26045 14.3765 5.43954 14.4936 5.66838 14.5894C5.89723 14.6959 6.20567 14.7598 6.80265 14.8769C7.78767 15.0792 7.97672 15.0579 7.97672 15.1005H7.98666Z" fill="white"/>
<path d="M3.39011 10.5538C3.59905 10.7775 3.91744 11.0543 4.44477 11.3525C5.48949 11.9381 6.32526 11.9914 6.30536 12.0872C6.28546 12.1937 5.32034 12.2789 4.33532 11.9594C4.02688 11.8529 2.97221 11.5015 2.38518 10.5112C2.04689 9.94689 1.87775 9.21215 2.03695 9.11632C2.13645 9.06308 2.36528 9.2441 2.46478 9.32928C2.73342 9.56355 2.76327 9.75522 3.04186 10.1386C3.04186 10.1386 3.17121 10.3196 3.39011 10.5432V10.5538Z" fill="white"/>
<path d="M7.02064 13.6844C7.02064 13.8548 5.76699 13.9826 4.94116 13.8442C4.62277 13.7909 4.40388 13.7057 4.28448 13.6525C4.16508 13.5993 3.89645 13.4821 3.6676 13.2798C3.23977 12.8965 2.97112 12.2576 3.13031 12.1298C3.29946 11.9913 3.81685 12.6409 4.99091 13.1307C6.16498 13.6205 7.03059 13.546 7.02064 13.6844Z" fill="white"/>
<path d="M2.23503 7.55115C2.50367 7.91319 2.78226 8.14746 2.9116 8.26459C3.00115 8.33913 3.20015 8.49886 3.51854 8.70117C4.33441 9.20165 4.9314 9.31878 4.9115 9.39332C4.8916 9.47851 4.17522 9.43591 3.47874 9.22294C2.72257 8.98868 2.26488 8.63729 2.12559 8.52015C2.03604 8.44562 1.81714 8.26459 1.58829 7.97709C1.4092 7.75347 1.09082 7.35948 0.961474 6.76318C0.891826 6.45437 0.832117 5.91131 0.981363 5.85807C1.15051 5.79418 1.51865 6.32659 1.65795 6.53956C1.98629 7.01874 1.92659 7.13587 2.23503 7.5618V7.55115Z" fill="white"/>
<path d="M7.62875 8.29652C8.44462 9.54238 8.55408 10.8841 8.58393 11.2994C8.66352 12.4387 8.37498 12.5985 8.54412 13.5888C8.79286 14.9943 9.57889 15.7823 9.47939 15.8569C9.36995 15.9314 8.43467 15.1541 7.99688 13.9827C7.73819 13.28 7.66855 12.4813 7.62875 12.066C7.579 11.4804 7.62875 11.523 7.579 11.0544C7.52925 10.6285 7.42976 9.90443 6.99197 9.1271C6.79298 8.7757 6.59399 8.54144 6.40494 8.30717C5.92736 7.74281 5.44976 7.35947 4.93238 6.97613C3.46977 5.90065 2.77331 5.65574 1.64899 4.64415C1.45 4.46312 1.2311 4.25015 1.02216 3.94135C0.435126 3.06819 0.35553 2.04594 0.494825 1.9927C0.604272 1.95011 0.773419 2.52512 1.4301 3.24921C1.80819 3.67514 2.15642 3.93071 2.51461 4.18627C4.46475 5.6025 4.89259 5.90065 5.36022 6.26269C6.60393 7.19975 7.22081 7.66827 7.62875 8.29652Z" fill="white"/>
<path d="M20.1758 14.9408C20.1758 15.1006 22.0463 15.6543 23.1507 14.8556C23.5885 14.5362 23.9169 13.9931 23.8174 13.876C23.7577 13.8121 23.5587 13.8866 23.2502 14.0038C22.8721 14.1422 22.6931 14.2593 22.4742 14.3658C22.2453 14.4723 21.9468 14.5468 21.3498 14.6853C20.3648 14.9089 20.1758 14.8982 20.1758 14.9408Z" fill="white"/>
<path d="M24.6707 10.2664C24.4618 10.49 24.1533 10.7881 23.636 11.0969C22.6012 11.7039 21.7754 11.7891 21.7953 11.8849C21.8152 11.9914 22.7803 12.0553 23.7653 11.7039C24.0737 11.5974 25.1185 11.2034 25.6856 10.2131C26.0139 9.63811 26.1632 8.90337 25.994 8.80753C25.8945 8.75429 25.6756 8.94596 25.5761 9.03115C25.3075 9.26541 25.2876 9.46774 25.019 9.85108C25.019 9.85108 24.8896 10.0321 24.6807 10.2664H24.6707Z" fill="white"/>
<path d="M21.1095 13.4926C21.1194 13.663 22.3731 13.7589 23.1889 13.5991C23.4974 13.5352 23.7163 13.45 23.8357 13.3968C23.9551 13.3436 24.2237 13.2158 24.4526 13.0028C24.8704 12.6088 25.1192 11.9593 24.9699 11.8421C24.8008 11.7037 24.2934 12.3746 23.1292 12.8857C21.9651 13.4075 21.0995 13.3542 21.1095 13.4926Z" fill="white"/>
<path d="M25.7563 7.24194C25.4976 7.60398 25.229 7.84889 25.0897 7.96602C25.0001 8.04056 24.8011 8.21093 24.4927 8.41325C23.6868 8.93502 23.0997 9.0628 23.1196 9.13734C23.1395 9.22253 23.8559 9.16929 24.5524 8.93503C25.2986 8.67947 25.7563 8.31742 25.8956 8.20029C25.9852 8.12575 26.1941 7.93408 26.4229 7.64658C26.5921 7.42296 26.9005 7.00768 27.0299 6.42202C27.0896 6.11321 27.1393 5.57015 26.9901 5.51691C26.8209 5.45302 26.4627 5.99608 26.3334 6.20904C26.015 6.69887 26.0847 6.80535 25.7762 7.24194H25.7563Z" fill="white"/>
<path d="M20.3857 8.12612C19.5996 9.39328 19.52 10.735 19.5001 11.1503C19.4504 12.2896 19.7389 12.4494 19.5897 13.4396C19.3708 14.8559 18.6047 15.6652 18.7042 15.729C18.8136 15.7929 19.729 14.9943 20.1369 13.8123C20.3857 13.1095 20.4354 12.3003 20.4553 11.8956C20.4951 11.31 20.4354 11.3526 20.4852 10.884C20.525 10.4581 20.6046 9.73402 21.0324 8.94604C21.2214 8.584 21.4105 8.34974 21.6095 8.11547C22.0771 7.54046 22.5348 7.14647 23.0522 6.74184C24.4949 5.62376 25.1814 5.35755 26.2858 4.32466C26.4848 4.13299 26.6938 3.92003 26.9027 3.61123C27.4698 2.71677 27.5196 1.70517 27.3803 1.65193C27.2709 1.61998 27.1216 2.18435 26.4749 2.92973C26.1067 3.36632 25.7585 3.63252 25.4103 3.89873C23.49 5.3682 23.0721 5.67701 22.6045 6.0497C21.3906 7.0187 20.7737 7.50852 20.3857 8.13677V8.12612Z" fill="white"/>
<path d="M19.9051 20.201C19.8653 16.325 17.2485 13.2264 14.0646 13.2583C10.8807 13.2902 8.34355 16.4741 8.3933 20.3501L19.9051 20.201Z" fill="white"/>
<path d="M13.9523 2.32745C15.9194 2.30136 17.5096 1.90361 17.5043 1.43905C17.4989 0.974498 15.8999 0.619056 13.9328 0.645145C11.9657 0.671234 10.3755 1.06897 10.3808 1.53353C10.3862 1.99809 11.9852 2.35354 13.9523 2.32745Z" fill="white"/>
<path d="M13.9355 1.80613C15.4905 1.7855 16.7491 1.60194 16.7467 1.39612C16.7444 1.19031 15.4819 1.04018 13.9269 1.0608C12.3719 1.08143 11.1133 1.26499 11.1156 1.47081C11.118 1.67662 12.3805 1.82675 13.9355 1.80613Z" fill="white"/>
<path d="M24.9545 23.0547C24.8848 22.9908 24.7555 22.8843 24.5266 22.7991C24.3475 22.7352 24.1784 22.7033 24.0689 22.6926C23.9694 22.6926 23.7704 22.6926 23.5515 22.7352C23.3924 22.7778 23.273 22.8311 23.1934 22.8736C23.2332 22.8736 23.273 22.8736 23.3128 22.8843C23.8998 22.9482 24.5465 23.0973 24.5764 23.2676C24.6659 23.2463 24.7953 23.1931 24.9445 23.0547H24.9545Z" fill="white"/>
<path d="M23.3206 22.8845C23.3206 22.8845 23.241 22.8845 23.2012 22.8739C21.4301 22.7141 20.6938 23.4169 18.7437 23.5234C16.8533 23.6299 15.2315 23.0975 15.2514 23.0016C15.2613 22.959 15.6891 23.0016 16.5747 22.9484C17.4701 22.8845 18.3159 22.8313 18.5447 22.5012C18.5447 22.5012 18.674 22.3095 18.5746 22.1391C18.2164 21.5535 15.6692 21.6812 12.8634 21.8303C11.7391 21.8942 10.8237 21.9687 10.2566 22.022C8.51542 22.3627 6.78416 22.7141 5.04297 23.0549L5.07282 25.8873C6.66477 25.4827 8.26668 25.0887 9.85863 24.6841C10.4855 24.8332 11.0625 24.929 11.57 24.9822C12.0675 25.0355 12.147 25.0248 13.0525 25.0994C14.1171 25.1952 14.1469 25.2271 14.7937 25.2697C15.4901 25.3123 15.918 25.3336 16.4752 25.291C17.102 25.2271 17.0522 25.1526 18.0771 24.9822C18.8432 24.8544 19.6093 24.7799 19.7785 24.7693C20.2959 24.716 20.5147 24.716 20.9326 24.6415C21.4898 24.5456 21.8281 24.4285 21.9276 24.3966C22.3057 24.2688 22.4848 24.1623 22.7634 24.0239C23.8479 23.4915 24.5842 23.4702 24.5742 23.2785C24.5742 23.2785 24.5742 23.2785 24.5742 23.2678C24.5444 23.0975 23.8976 22.9484 23.3106 22.8845H23.3206Z" fill="white"/>
<path d="M18.2344 24.7694C17.6176 24.8333 16.7519 24.9504 15.6973 25.174C16.1848 25.4509 16.6624 25.7384 17.1499 26.0152C17.339 25.9513 17.6076 25.8768 17.9359 25.781C18.5329 25.6212 18.921 25.5254 19.4185 25.4722C19.896 25.4296 19.9259 25.4722 20.3935 25.4083C20.6124 25.3763 20.9109 25.3337 21.2691 25.2059C21.3686 25.174 21.7467 25.0356 22.075 24.8013C22.1049 24.78 22.1447 24.7481 22.274 24.6629C22.5427 24.4712 22.5625 24.4712 22.672 24.386C22.7814 24.3115 22.7814 24.3008 22.9406 24.1837C23.0302 24.1198 23.0998 24.0666 23.1297 24.0453C24.0451 23.3851 24.1246 23.3212 24.1047 23.2999C24.065 23.2254 23.3884 23.4703 21.6372 24.0453C20.6025 24.386 20.2144 24.5138 19.6373 24.6203C19.1001 24.7161 18.8513 24.7161 18.2046 24.78L18.2344 24.7694Z" fill="white"/>
<path d="M14.0073 12.0446C16.0899 12.0446 17.7782 10.2377 17.7782 8.00887C17.7782 5.78 16.0899 3.97314 14.0073 3.97314C11.9246 3.97314 10.2363 5.78 10.2363 8.00887C10.2363 10.2377 11.9246 12.0446 14.0073 12.0446Z" fill="white"/>
</svg>
