<svg width="182" height="32" viewBox="0 0 182 32" fill="none" xmlns="http://www.w3.org/2000/svg">
<g clip-path="url(#clip0_510_802)">
<path d="M9.13596 17.5902C9.14011 17.7676 6.86096 18.4353 5.5015 17.5334C4.96213 17.176 4.54862 16.5582 4.66894 16.4294C4.73809 16.356 4.98841 16.4391 5.3632 16.5651C5.82511 16.7203 6.04639 16.8505 6.31745 16.9669C6.59958 17.0874 6.97022 17.165 7.69905 17.3132C8.90086 17.557 9.13458 17.5348 9.13458 17.5902H9.13596Z" fill="#FAE57D"/>
<path d="M3.57363 12.3166C3.82671 12.5742 4.20841 12.8998 4.85426 13.2461C6.12384 13.9276 7.13894 14.0066 7.11682 14.1174C7.09331 14.2338 5.91224 14.328 4.70628 13.9401C4.32735 13.8182 3.05086 13.3902 2.34277 12.2598C1.93618 11.6128 1.73565 10.7637 1.94171 10.6584C2.06756 10.5933 2.33586 10.8121 2.45756 10.9105C2.78809 11.1792 2.82267 11.4023 3.15597 11.8428C3.15597 11.8428 3.31501 12.0534 3.57363 12.3166Z" fill="#FAE57D"/>
<path d="M7.96872 15.9515C7.95627 16.1454 6.42808 16.2701 5.42957 16.1039C5.04648 16.0402 4.77818 15.9404 4.63297 15.8809C4.48637 15.8199 4.16138 15.6828 3.87925 15.4417C3.36201 14.9998 3.04531 14.2601 3.2334 14.1202C3.44361 13.9636 4.06318 14.7131 5.49595 15.2893C6.92595 15.8642 7.97978 15.7908 7.96872 15.9515Z" fill="#FAE57D"/>
<path d="M2.20999 8.86301C2.52807 9.27582 2.8669 9.55288 3.03147 9.68587C3.14211 9.77591 3.38137 9.96154 3.76722 10.1915C4.7602 10.7816 5.48211 10.9174 5.45584 11.0033C5.42818 11.0961 4.5569 11.0462 3.70775 10.7899C2.78945 10.5129 2.23073 10.0973 2.06201 9.96431C1.95552 9.88119 1.6886 9.66371 1.41062 9.33401C1.19765 9.0805 0.813177 8.61366 0.656901 7.94042C0.575305 7.59133 0.504773 6.96795 0.69839 6.90284C0.908603 6.83219 1.34424 7.44587 1.51711 7.68829C1.91265 8.24518 1.83382 8.37262 2.21137 8.86301H2.20999Z" fill="#FAE57D"/>
<path d="M8.78744 9.79814C9.76797 11.2333 9.87999 12.771 9.90903 13.2489C9.98786 14.5497 9.63382 14.7381 9.83297 15.8657C10.1165 17.4768 11.068 18.3966 10.9421 18.4714C10.8121 18.549 9.67946 17.6485 9.16084 16.3034C8.85244 15.5 8.78052 14.5843 8.74318 14.1105C8.69063 13.4373 8.76254 13.4899 8.69754 12.9524C8.63946 12.4703 8.53158 11.6378 8.00329 10.7387C7.76403 10.3315 7.52893 10.0627 7.29244 9.79537C6.71712 9.14567 6.14456 8.70099 5.50563 8.24939C3.72712 6.99156 2.88765 6.70203 1.52403 5.5287C1.27786 5.31675 1.01648 5.0771 0.763393 4.71692C0.0539254 3.70567 -0.0235217 2.54065 0.152117 2.48663C0.287648 2.44507 0.481266 3.09615 1.27648 3.94117C1.73701 4.43156 2.15882 4.72939 2.58616 5.02861C4.94967 6.68125 5.47105 7.02758 6.03946 7.44039C7.54137 8.53199 8.29233 9.07779 8.78605 9.79952L8.78744 9.79814Z" fill="#FAE57D"/>
<path d="M24.0292 17.5902C24.0251 17.7676 26.3042 18.4353 27.6637 17.5334C28.2031 17.176 28.6166 16.5582 28.4963 16.4294C28.4271 16.356 28.1768 16.4391 27.802 16.5651C27.3401 16.7203 27.1188 16.8505 26.8478 16.9669C26.5656 17.0874 26.195 17.165 25.4662 17.3132C24.2643 17.557 24.0306 17.5348 24.0306 17.5902H24.0292Z" fill="#FAE57D"/>
<path d="M29.5916 12.3166C29.3385 12.5742 28.9568 12.8998 28.3109 13.2461C27.0414 13.9276 26.0263 14.0066 26.0484 14.1174C26.0719 14.2338 27.253 14.328 28.4589 13.9401C28.8379 13.8182 30.1143 13.3902 30.8224 12.2598C31.229 11.6128 31.4296 10.7637 31.2235 10.6584C31.0976 10.5933 30.8293 10.8121 30.7076 10.9105C30.3771 11.1792 30.3425 11.4023 30.0092 11.8428C30.0092 11.8428 29.8502 12.0534 29.5916 12.3166Z" fill="#FAE57D"/>
<path d="M25.1965 15.9515C25.2089 16.1454 26.7371 16.2701 27.7356 16.1039C28.1187 16.0402 28.387 15.9404 28.5322 15.8809C28.6788 15.8199 29.0038 15.6828 29.286 15.4417C29.8032 14.9998 30.1199 14.2601 29.9318 14.1202C29.7216 13.9636 29.102 14.7131 27.6693 15.2893C26.2393 15.8642 25.1854 15.7908 25.1965 15.9515Z" fill="#FAE57D"/>
<path d="M30.9552 8.86301C30.6371 9.27582 30.2983 9.55288 30.1337 9.68587C30.0231 9.77591 29.7838 9.96154 29.398 10.1915C28.405 10.7816 27.6831 10.9174 27.7094 11.0033C27.737 11.0961 28.6083 11.0462 29.4575 10.7899C30.3758 10.5129 30.9345 10.0973 31.1032 9.96431C31.2097 9.88119 31.4766 9.66371 31.7546 9.33401C31.9676 9.0805 32.352 8.61366 32.5083 7.94042C32.5899 7.59133 32.6604 6.96795 32.4668 6.90284C32.2566 6.83219 31.821 7.44587 31.6481 7.68829C31.2526 8.24518 31.3314 8.37262 30.9538 8.86301H30.9552Z" fill="#FAE57D"/>
<path d="M24.3792 9.79814C23.3986 11.2333 23.2866 12.771 23.2576 13.2489C23.1787 14.5497 23.5328 14.7381 23.3336 15.8657C23.0501 17.4768 22.0986 18.3966 22.2245 18.4714C22.3545 18.549 23.4871 17.6485 24.0058 16.3034C24.3142 15.5 24.3861 14.5843 24.4234 14.1105C24.476 13.4373 24.404 13.4899 24.469 12.9524C24.5271 12.4703 24.635 11.6378 25.1633 10.7387C25.4026 10.3315 25.6377 10.0627 25.8742 9.79537C26.4495 9.14567 27.022 8.70099 27.661 8.24939C29.4395 6.99156 30.2789 6.70203 31.6426 5.5287C31.8887 5.31675 32.1501 5.0771 32.4032 4.71692C33.1127 3.70567 33.1901 2.54065 33.0145 2.48663C32.8789 2.44507 32.6853 3.09615 31.8901 3.94117C31.4296 4.43156 31.0078 4.72939 30.5804 5.02861C28.2169 6.68125 27.6955 7.02758 27.1271 7.44039C25.6252 8.53199 24.8743 9.07779 24.3805 9.79952L24.3792 9.79814Z" fill="#FAE57D"/>
<path d="M23.6323 23.6011C23.6323 19.1695 20.4819 15.5775 16.5957 15.5775C12.7096 15.5775 9.55914 19.1695 9.55914 23.6011H23.6323Z" fill="#FAE57D"/>
<path d="M31.4448 28.0824C31.366 28.009 31.2069 27.8815 30.9317 27.779C30.7118 27.6987 30.5057 27.6668 30.373 27.653C30.2499 27.6446 30.0134 27.6391 29.7396 27.6973C29.546 27.7388 29.4007 27.7984 29.3026 27.8483C29.351 27.8524 29.3994 27.858 29.4491 27.8635C30.16 27.9439 30.9497 28.124 30.9884 28.3193C31.1032 28.2999 31.2526 28.2375 31.4462 28.0824H31.4448Z" fill="#FAE57D"/>
<path d="M29.4478 27.8635C29.398 27.858 29.3496 27.8538 29.3012 27.8483C27.1437 27.6447 26.224 28.4301 23.8481 28.5229C21.5302 28.6144 19.5622 27.9771 19.5927 27.8774C19.6079 27.8275 20.1265 27.8871 21.2066 27.8331C22.3061 27.779 23.3322 27.7208 23.624 27.3565C23.631 27.3482 23.7886 27.1404 23.6614 26.9382C23.2327 26.2608 20.121 26.366 16.6926 26.4976C15.3165 26.5503 14.2004 26.6237 13.5006 26.6736C11.3736 27.0407 9.24522 27.4078 7.11819 27.7749V31.0109C9.07511 30.5773 11.0306 30.1451 12.9876 29.7115C13.7523 29.8902 14.4549 30.0038 15.0689 30.0786C15.6788 30.152 15.777 30.1354 16.8751 30.2407C18.1723 30.3653 18.2083 30.4055 19.0063 30.4609C19.8623 30.5205 20.3768 30.5565 21.0572 30.5053C21.8262 30.4471 21.7584 30.357 23.0169 30.1825C23.9546 30.0523 24.8909 29.9789 25.0955 29.9622C25.7303 29.9124 25.9917 29.9096 26.5145 29.8306C27.1921 29.7281 27.6167 29.6021 27.737 29.566C28.2003 29.4261 28.4271 29.3028 28.7646 29.1546C30.1033 28.5673 30.9939 28.5451 30.9898 28.3331C30.9898 28.329 30.9898 28.3248 30.9884 28.3193C30.9497 28.1226 30.1614 27.9425 29.4492 27.8635H29.4478Z" fill="#FAE57D"/>
<path d="M23.5853 30.1104C22.8343 30.1742 21.7695 30.2919 20.4736 30.5302C21.0614 30.8599 21.6491 31.1896 22.2369 31.5193C22.4692 31.4528 22.8012 31.3627 23.2064 31.2672C23.9393 31.0954 24.4082 30.9859 25.0278 30.9361C25.61 30.889 25.6515 30.9485 26.2199 30.8765C26.4937 30.8419 26.8533 30.7962 27.2958 30.6535C27.4231 30.6119 27.8878 30.4595 28.2916 30.2046C28.3331 30.1783 28.3829 30.1451 28.5433 30.044C28.8738 29.8334 28.8946 29.8251 29.0342 29.7309C29.1629 29.6436 29.1739 29.6311 29.3689 29.5009C29.4809 29.4261 29.5653 29.3707 29.6054 29.343C30.7395 28.5991 30.8321 28.5312 30.8128 28.5007C30.7602 28.419 29.9346 28.6836 27.7896 29.3222C26.5172 29.7004 26.0484 29.8348 25.3417 29.9456C24.6779 30.0495 24.3778 30.044 23.5853 30.1118V30.1104Z" fill="#FAE57D"/>
<path d="M16.5957 14.1852C19.1438 14.1852 21.2094 12.1162 21.2094 9.56392C21.2094 7.01165 19.1438 4.94263 16.5957 4.94263C14.0477 4.94263 11.9821 7.01165 11.9821 9.56392C11.9821 12.1162 14.0477 14.1852 16.5957 14.1852Z" fill="#FAE57D"/>
<path d="M78.7371 15.3267L79.1382 15.6343C78.993 19.8968 79.6236 24.3311 78.816 28.6005C62.9629 35.2443 40.0857 32.2133 37.2091 18.6805C33.93 3.25677 60.3698 -5.01613 78.8782 3.31495L79.1825 7.60517L75.1027 5.71426C69.6344 3.65989 63.1302 3.12794 57.07 4.38023C35.7915 8.77434 42.2472 31.8199 66.3747 28.3594C67.6069 28.1821 71.2608 27.5117 72.1542 27.0864C72.5497 26.898 72.7018 26.6639 72.7668 26.3605L72.9272 18.8038H62.6476C62.3682 18.6819 62.2009 18.3203 62.2009 18.1278V15.3295H78.7385L78.7371 15.3267Z" fill="#FAE57D"/>
<path d="M104.213 15.9058V21.0216C104.213 21.1283 104.65 21.4455 104.514 21.6976C108.022 19.4105 112.485 20.6711 113.612 23.619C115.198 27.7665 110.681 32.392 104.365 28.8374L104.214 29.9982H102.127V15.9058H104.213ZM108.316 22.3141C106.806 22.454 106.25 23.2284 106.026 24.126C105.755 25.2148 105.398 27.671 107.113 28.214C110.452 29.271 111.756 27.0753 111.674 25.2606C111.606 23.7603 111.297 22.037 108.315 22.3141H108.316Z" fill="#FAE57D"/>
<path d="M96.7643 29.9968H94.3786L94.3772 28.6462C91.3748 30.8502 84.731 30.641 84.9522 27.0337C85.1279 24.1606 90.9862 24.1149 94.0813 24.9779C94.2459 22.7116 92.3968 21.7447 88.9394 22.1312C87.6546 22.2753 86.941 22.8986 85.7419 23.0483C85.8788 22.3958 85.3229 21.3679 86.2135 20.9426C87.7279 20.2195 91.9045 20.2638 93.647 20.7251C94.9996 21.0839 96.7643 22.3889 96.7643 23.3378V29.9968ZM88.9311 25.7911C85.3063 26.3231 87.1871 30.26 91.5048 28.6157C94.6248 27.4285 92.4314 25.2772 88.9311 25.7911Z" fill="#FAE57D"/>
<path d="M181.941 25.5293C181.434 26.0557 173.307 25.2134 171.694 25.7426C171.535 29.2515 177.913 29.3 181.385 27.8732L181.346 29.3901C176.677 30.7823 170.14 30.3085 169.248 26.3743C167.562 18.934 182.581 18.0723 181.939 25.5279L181.941 25.5293ZM179.599 24.3989C179.302 20.7334 172.261 20.872 171.554 24.3989H179.599Z" fill="#FAE57D"/>
<path d="M150.995 25.7509H140.566C140.56 29.4621 146.496 29.3028 150.398 28.0685L150.262 29.4275C145.773 30.8986 139.419 30.4318 138.255 26.7677C135.878 19.2817 151.644 17.9324 150.995 25.7523V25.7509ZM140.566 24.5928H148.164C149.212 23.8947 147.47 22.2226 146.243 21.976C143.203 21.3679 140.778 22.6285 140.566 24.5928Z" fill="#FAE57D"/>
<path d="M125.667 22.2752C123.954 22.4221 123.192 21.3235 123.312 20.3622L124.463 20.0422L122.997 16.8809L125.085 16.5637L126.573 19.5656L131.028 18.7996L131.625 20.3414L127.459 21.21C128.728 22.5537 130.498 28.5339 132.297 29.0839C133.582 29.4759 134.8 28.7376 136.082 28.6475L136.948 30.0979C128.793 33.3852 128.233 26.4422 126.26 23.0482C125.742 23.0025 125.98 23.4874 125.966 23.7201C125.829 26.0086 125.775 28.2943 125.367 30.5731C124.894 30.465 124.995 29.566 124.958 29.2446C124.865 28.4494 124.963 27.6086 124.771 26.8134L125.367 27.0974L125.667 25.1677H124.777L124.478 26.5197V22.659H124.772L124.777 24.9765H125.669V22.2725L125.667 22.2752Z" fill="#FAE57D"/>
<path d="M118.539 19.0393C119.574 18.1693 120.706 18.2012 122.106 17.8798C122.596 17.7676 123.021 17.3603 123.352 17.6831C122.918 18.1583 122.896 19.0975 122.43 19.4978C122.32 19.592 121.13 20.0367 120.933 20.045C120.488 20.0644 119.709 19.6959 119.469 19.4424L120.401 19.5408L120.09 19.2402L120.702 19.2291L120.72 18.9492L122.107 18.9354L120.711 18.7359L122.419 18.2331C121.735 18.3203 120.882 18.3979 120.258 18.5946C119.585 18.8066 119.31 19.1792 118.765 19.4493L118.409 19.4175C117.768 18.5835 116.261 18.3674 114.961 18.2331C115.329 18.5655 116.245 18.5822 116.824 18.6362C116.855 18.7816 116.404 18.7886 116.238 18.808C115.916 18.844 115.596 18.8467 115.273 18.837L116.58 18.9299C116.636 18.9396 116.978 19.4951 117.018 19.5158C117.129 19.5754 117.763 19.4853 117.433 19.8317C117.405 19.8608 116.585 20.0533 116.433 20.0519C116.195 20.0519 115.134 19.6142 114.979 19.4784C114.808 19.3288 113.919 17.6014 114.031 17.528L117.711 18.4131L118.538 19.0365L118.539 19.0393Z" fill="#FAE57D"/>
<path d="M164.996 15.9071L165.296 29.7073L165.009 30.1104L163.532 30.1755L163.212 15.9071H164.996Z" fill="#FAE57D"/>
<path d="M156.656 15.9058V30.1894C156.015 30.1963 155.278 30.2905 154.867 29.8999V15.9058H156.656Z" fill="#FAE57D"/>
<path d="M119.409 20.3442C119.713 21.5328 120.043 29.6118 119.379 29.9761L117.622 29.9955L117.61 20.6684L119.409 20.3442Z" fill="#FAE57D"/>
<path d="M118.164 16.9794C119.848 16.7508 120.423 17.5848 118.982 17.7025C117.526 17.8203 117.101 17.1235 118.164 16.9794ZM119.42 17.4102C119.359 17.2939 119.181 17.2094 118.989 17.1872C118.61 17.1442 117.66 17.2814 118.247 17.4185C118.689 17.5224 118.982 17.4615 119.422 17.4102H119.42Z" fill="#FAE57D"/>
<path d="M16.5958 1.14563C14.188 1.14563 12.2366 1.57783 12.2366 2.11117C12.2366 2.6445 14.188 3.07671 16.5958 3.07671C19.0035 3.07671 20.9549 2.6445 20.9549 2.11117C20.9549 1.57783 19.0035 1.14563 16.5958 1.14563ZM16.5833 2.48381C14.6845 2.48381 13.1466 2.28987 13.1466 2.0516C13.1466 1.81333 14.6859 1.61939 16.5833 1.61939C18.4808 1.61939 20.02 1.81333 20.02 2.0516C20.02 2.28987 18.4808 2.48381 16.5833 2.48381Z" fill="#FAE57D"/>
</g>
<defs>
<clipPath id="clip0_510_802">
<rect width="182" height="32" fill="white"/>
</clipPath>
</defs>
</svg>
