<svg width="24" height="24" viewBox="0 0 24 24" fill="none" xmlns="http://www.w3.org/2000/svg">
<path d="M5.62 10.79C7.06 13.62 9.38 15.94 12.21 17.38L14.41 15.18C14.69 14.9 15.08 14.82 15.43 14.93C16.55 15.3 17.75 15.5 19 15.5C19.2652 15.5 19.5196 15.6054 19.7071 15.7929C19.8946 15.9804 20 16.2348 20 16.5V20C20 20.2652 19.8946 20.5196 19.7071 20.7071C19.5196 20.8946 19.2652 21 19 21C14.4913 21 10.1673 19.2089 6.97918 16.0208C3.79107 12.8327 2 8.50868 2 4C2 3.73478 2.10536 3.48043 2.29289 3.29289C2.48043 3.10536 2.73478 3 3 3H6.5C6.76522 3 7.01957 3.10536 7.20711 3.29289C7.39464 3.48043 7.5 3.73478 7.5 4C7.5 5.25 7.7 6.45 8.07 7.57C8.18 7.92 8.1 8.31 7.82 8.59L5.62 10.79Z" fill="black"/>
</svg>
