<svg width="73" height="39" viewBox="0 0 73 39" fill="none" xmlns="http://www.w3.org/2000/svg">
<mask id="path-1-inside-1_101_1070" fill="white">
<path d="M55.8882 0.0466637C56.1457 0.0568927 56.4033 0.0671216 56.6686 0.0776605C57.9919 0.150891 59.0628 0.391938 60.2694 0.928349C60.4375 0.991995 60.6055 1.05564 60.7786 1.12122C65.7148 2.99256 69.335 6.41926 71.6196 11.1779C72.4203 13.0718 73.117 15.049 72.9835 17.122C72.9792 17.1883 72.9246 17.2395 72.8581 17.2395V17.2395C72.7988 17.2395 72.7465 17.1986 72.7331 17.1408C72.6876 16.9446 72.642 16.7476 72.5951 16.5455C72.1831 14.8072 71.7378 13.1436 71.0035 11.5086C71.0775 11.7058 71.1515 11.903 71.2277 12.1061C71.3254 12.3726 71.4231 12.6392 71.5238 12.9138C71.6686 13.305 71.6686 13.305 71.8164 13.7042C73.2821 18.0627 72.735 22.7687 70.9042 26.9191C70.4927 27.7452 70.0552 28.5503 69.5933 29.3489C69.5146 29.4872 69.4359 29.6254 69.3548 29.7679C68.7881 30.7127 68.151 31.3209 67.2794 32.0077C67.1032 32.1896 66.927 32.3714 66.7455 32.5588C63.9129 35.3394 59.7634 37.1063 55.8061 37.1188V37.1188C55.5777 37.1069 55.5175 36.8211 55.7316 36.7409C56.0706 36.6138 56.4143 36.5311 56.8192 36.4713C61.201 35.6364 65.2554 33.1941 67.8562 29.528C68.9014 27.9414 69.8619 26.0333 70.235 24.1249C70.2521 24.0377 70.1482 24.0132 70.1204 24.0975V24.0975C69.503 25.9003 68.8551 27.6021 67.5926 29.0279C67.3935 29.2527 67.1277 29.4068 66.8364 29.48V29.48C66.5531 29.5513 66.2835 29.6796 66.0733 29.8824C65.9465 30.0049 65.8561 30.1102 65.6228 30.3821C63.472 32.6182 60.099 34.5129 56.9604 34.6769C56.6393 34.6795 56.3181 34.6703 55.9972 34.6573C55.9363 34.6549 55.8882 34.6055 55.8882 34.5445V34.5445C55.8882 34.4826 55.8388 34.4313 55.7769 34.4299C55.5623 34.425 55.3468 34.4201 55.1258 34.4152C50.9688 34.2805 47.2746 33.0441 44.2685 30.0136C43.5045 29.1727 43.278 28.9235 43.2109 28.5785C43.1757 28.3979 43.4122 28.312 43.5309 28.4526V28.4526C45.6339 30.7658 48.784 32.7095 51.9564 32.9191C54.479 33.0306 56.568 32.7271 58.8036 31.9793C58.9757 31.9218 58.9451 31.8287 58.7771 31.8975V31.8975C58.0721 32.1663 57.3791 32.3109 56.6756 32.3847C56.0324 32.4522 55.8964 31.8531 56.5317 31.7322V31.7322C59.7001 31.023 62.2107 29.3648 64.0406 26.678C65.3579 24.5839 66.2544 22.4018 66.1841 19.8846C66.1728 20.0346 66.1615 20.1846 66.1499 20.3392C65.9753 21.8404 65.5618 23.0756 64.8971 24.417C64.7855 24.6452 64.7855 24.6452 64.6717 24.8781C64.3251 25.5496 64.0126 26.063 63.4606 26.4856C63.3643 26.5593 63.248 26.4551 63.3021 26.3465V26.3465C63.3857 26.178 63.4693 26.0095 63.5554 25.8359C63.6435 25.6606 63.7316 25.4853 63.8224 25.3047C64.8953 23.0699 65.1742 21.0283 65.0888 18.562C65.0604 18.874 65.0604 18.874 65.0315 19.1923C64.6863 22.3661 63.771 25.0679 61.2492 27.1817C60.8046 27.5081 60.3739 27.8059 59.9218 28.0579C59.4667 28.3117 59.2127 27.8775 59.6533 27.5993V27.5993C61.5419 26.2587 62.6971 24.0146 63.243 21.7986C63.7013 18.8923 63.3054 16.4998 61.6112 14.071C60.1365 12.2519 58.2471 10.9078 55.8882 10.6269C53.8304 10.4826 51.9566 10.4811 50.0719 11.2642C49.9837 11.3008 50.0211 11.4186 50.115 11.4012V11.4012C51.2493 11.2267 52.374 11.2385 53.5196 11.233C53.8722 11.2262 53.8722 11.2262 54.232 11.2193C55.1529 11.2148 56.0013 11.2894 56.8451 11.45C57.4622 11.5674 57.4288 12.1001 56.8162 11.9612V11.9612C56.786 11.9544 56.7486 11.9481 56.7177 11.9456C49.8083 11.3827 44.8533 14.4846 39.6776 18.7825C39.533 18.9279 39.3885 19.0734 39.2395 19.2233C39.3728 19.1216 39.5061 19.0199 39.6434 18.9151C40.9064 17.9694 42.1962 17.083 43.5249 16.2338C43.6788 16.1339 43.8327 16.0339 43.9913 15.9309C44.3375 15.7124 44.6937 15.51 45.052 15.3121C45.1159 15.2767 45.1922 15.2749 45.2574 15.3077V15.3077C45.4078 15.3834 45.4233 15.5929 45.2848 15.6887C45.2004 15.747 45.1154 15.8058 45.0292 15.8653C42.1757 17.8618 39.6199 20.1245 37.1209 22.5517C36.9813 22.6859 36.8418 22.8201 36.698 22.9584C36.5753 23.0778 36.4526 23.1972 36.3261 23.3202C35.9769 23.6122 35.6318 23.8109 35.2339 23.9998C35.1389 24.0449 35.0773 24.14 35.0773 24.2452C35.0773 24.2615 35.0773 24.2779 35.0773 24.2944C35.0773 24.4153 34.9809 24.5134 34.8599 24.5134V24.5134C34.7389 24.5134 34.6392 24.6115 34.6392 24.7325C34.6392 24.7615 34.6392 24.7907 34.6392 24.8199C34.6392 24.9056 34.6035 24.9874 34.54 25.0449C34.2266 25.3287 33.9013 25.5995 33.5713 25.8635C33.353 26.0394 33.1347 26.2153 32.9098 26.3965C32.6853 26.5752 32.4608 26.7539 32.2295 26.9381C31.8232 27.2639 31.417 27.5899 31.011 27.9162C30.8345 28.0568 30.658 28.1975 30.4762 28.3424C30.1646 28.5897 30.0684 28.6661 29.8984 28.8357C29.8663 28.8677 29.9088 28.9165 29.9453 28.8897V28.8897C30.4645 28.5096 30.9842 28.1302 31.5039 27.7509C31.6828 27.6197 31.8616 27.4886 32.046 27.3535C32.6944 26.8807 33.1664 26.5365 33.5231 26.2859C34.4403 25.6415 35.557 25.2341 36.3917 24.4859V24.4859C39.1503 22.0648 42.0114 19.7974 45.1542 17.9008C45.2899 17.8162 45.4256 17.7316 45.5654 17.6444C45.8992 17.4418 46.2424 17.2551 46.5873 17.0722C46.6502 17.0388 46.7244 17.0376 46.788 17.0696V17.0696C46.9385 17.1453 46.9526 17.3557 46.8127 17.4495C46.266 17.8163 45.717 18.1845 45.1542 18.562C45.3945 18.4399 45.6348 18.3177 45.8824 18.1918C46.201 18.0305 46.5196 17.8692 46.8382 17.7079C46.9962 17.6275 47.1542 17.5471 47.317 17.4642C48.1182 17.0593 48.9119 16.6699 49.7545 16.3578C49.9482 16.2771 50.1419 16.1964 50.3415 16.1133C51.3318 15.846 52.2663 15.8529 53.2868 15.8619C53.5804 15.8593 53.5804 15.8593 53.8799 15.8567C54.0688 15.8573 54.2577 15.8579 54.4523 15.8584C54.6229 15.8589 54.7935 15.8594 54.9693 15.8599C55.254 15.8937 55.4891 15.957 55.7168 16.0492C55.8911 16.1198 55.8306 16.3591 55.6426 16.3596V16.3596C51.4856 16.4424 47.9698 17.9759 44.7537 20.613C44.414 20.8798 44.3168 20.9561 44.1296 20.9779C43.9971 20.9934 43.9086 21.1252 43.968 21.2447V21.2447C44.0159 21.3411 44.1381 21.3757 44.2281 21.3168C44.2637 21.2936 44.3029 21.2679 44.3737 21.2217C44.8426 20.9165 45.3132 20.614 45.784 20.3116C45.9475 20.2047 46.111 20.0977 46.2794 19.9875C46.5145 19.8372 46.5145 19.8372 46.7543 19.684C46.8989 19.5905 47.0434 19.497 47.1924 19.4006C47.2813 19.3582 47.3702 19.3157 47.4605 19.2726C47.5257 19.2415 47.6006 19.2418 47.6651 19.2743V19.2743C47.8198 19.3521 47.8399 19.5657 47.7011 19.6692C47.5552 19.7781 47.409 19.8866 47.2626 19.9948C47.1254 20.0971 46.9882 20.1994 46.8468 20.3048C46.5856 20.4712 46.5048 20.5227 46.3355 20.5387C46.1677 20.5545 46.0304 20.6809 46.0304 20.8495V20.8495C46.0304 20.9358 45.9938 21.0199 45.9296 21.0777C45.6576 21.3226 45.614 21.3549 45.1815 21.6755C45.024 21.7943 44.8664 21.913 44.7041 22.0354C44.4877 22.1744 44.3812 22.2428 44.2715 22.2765C44.0193 22.3539 43.7719 22.4658 43.6669 22.7079V22.7079C43.3822 23.2264 43.1143 23.4908 42.6623 23.8659C41.8891 24.5246 41.1346 25.2003 40.3896 25.8911C40.2778 25.9944 40.166 26.0977 40.0508 26.2041C39.4883 26.724 38.9272 27.2452 38.3675 27.7681C36.0065 29.9691 33.6474 32.0423 30.9151 33.7711C32.0651 33.1401 33.1048 32.4335 34.1463 31.6358C34.3743 31.4631 34.3743 31.4631 34.6068 31.2869C35.7345 30.4272 36.8244 29.5322 37.8952 28.6015V28.6015C38.2678 28.3301 38.4993 28.8055 38.1679 29.1259C37.3891 29.8787 36.5714 30.5762 35.7191 31.263C35.2983 31.6068 34.8837 31.9585 34.4766 32.3186C31.9991 34.4972 29.1549 36.287 26.0958 37.5183C25.9599 37.5802 25.8241 37.6422 25.6842 37.706C21.631 39.4501 16.6345 39.3269 12.5139 37.9591C12.3179 37.898 12.122 37.8369 11.9201 37.774C9.32111 36.8558 6.9946 35.0472 5.06581 33.1098C4.91332 32.959 4.76083 32.8081 4.60373 32.6526C2.18114 30.0969 0.0186388 26.0015 0 22.4194C0.00765164 22.2038 0.0153033 21.9883 0.0231212 21.768C0.0254988 21.701 0.0796522 21.6479 0.146681 21.6479V21.6479C0.204599 21.6479 0.255705 21.6879 0.268784 21.7443C0.314455 21.9413 0.360292 22.1391 0.407319 22.3419C1.08873 25.323 1.08873 25.323 2.43707 28.0402C2.36816 27.906 2.29926 27.7719 2.22827 27.6338C0.167743 23.3872 -0.285915 18.4662 1.17949 13.9403C1.96902 11.7607 3.0679 9.69883 4.62769 7.98183C4.80051 7.78776 4.97332 7.5937 5.15138 7.39375C8.06267 4.28881 12.0327 1.99394 16.3449 1.77043C16.9297 1.76904 17.5107 1.7783 18.0944 1.80462C18.1589 1.80753 18.2095 1.85993 18.2095 1.9245V1.9245C18.2095 1.9848 18.1652 2.03675 18.1055 2.04522C17.8757 2.07782 17.6452 2.11054 17.4086 2.14411C17.0549 2.19791 16.7012 2.25188 16.3475 2.30598C16.1741 2.33013 16.0007 2.35428 15.8221 2.37917C14.7361 2.54935 13.8592 2.83202 12.895 3.36584C12.5139 3.5734 12.5139 3.5734 11.7883 3.86271C10.4577 4.42417 9.10418 5.23713 8.08733 6.26754C7.88271 6.47162 7.78469 6.56939 7.6758 6.61623C7.439 6.71808 7.18989 6.81214 7.087 7.04848V7.04848C6.79209 7.58903 6.45775 7.93307 6.02421 8.36757C4.79925 9.71729 3.75962 11.555 3.24189 13.3574C3.22105 13.43 3.31164 13.4619 3.34326 13.3933V13.3933C4.37818 11.2189 4.4512 11.0654 5.29714 10.3579C5.37903 10.2894 5.50393 10.3453 5.50393 10.4521V10.4521C5.50393 10.5747 5.66125 10.6274 5.7326 10.5277C5.74504 10.5103 5.75753 10.4929 5.77006 10.4753C8.08434 7.34938 11.3188 4.95878 15.2163 4.33885C15.7393 4.28947 16.257 4.25266 16.7811 4.2376C16.8437 4.2358 16.8952 4.28532 16.8952 4.3479V4.3479C16.8952 4.40744 16.9419 4.45731 17.0014 4.46013C17.1016 4.46489 17.2025 4.46968 17.3055 4.47457C21.4059 4.6913 24.3728 5.30401 27.6292 7.98183C27.8355 8.14336 27.8355 8.14336 28.0459 8.30816C28.6272 8.77288 29.1041 9.24604 29.5234 9.8514C29.572 9.92158 29.5779 10.0116 29.5399 10.088V10.088C29.4645 10.2398 29.259 10.2682 29.1464 10.1415C29.1387 10.1328 29.131 10.1241 29.1233 10.1154C28.0875 9.00603 26.9809 8.26686 25.6576 7.54099C25.5133 7.45688 25.369 7.37278 25.2204 7.28612C22.3341 5.69215 18.5796 5.45811 15.4274 6.33798C14.0435 6.77633 12.8143 7.33899 11.6377 8.20225C11.7628 8.13036 11.8879 8.05848 12.0168 7.98441C13.5021 7.17894 15.04 6.64623 16.6662 6.47736C17.2326 6.41855 17.3624 6.97415 16.7993 7.05881V7.05881C14.7252 7.45431 12.9861 8.26402 11.3835 9.64532C11.2254 9.77097 11.1293 9.84733 11.0313 9.90704C10.612 10.1623 10.199 10.3625 9.99858 10.8105V10.8105C9.93812 10.9457 9.84098 11.128 9.75182 11.2462C9.59402 11.4555 9.43293 11.6623 9.26906 11.8668C8.02001 13.5261 7.32908 15.1805 7.03737 17.2395C7.08283 17.0742 7.1283 16.9088 7.17514 16.7384C7.66893 15.0878 8.31433 13.7376 9.42352 12.4182C9.43896 12.3998 9.45778 12.3849 9.47921 12.3741V12.3741C9.62392 12.3013 9.78143 12.4429 9.72066 12.5931C9.50729 13.1202 9.2697 13.6298 9.00893 14.1398C8.4521 15.2562 8.1582 16.1691 8.12807 17.3437C8.12577 17.4334 8.24181 17.4464 8.26275 17.3592V17.3592C8.81538 15.3003 9.72535 13.4647 11.329 12.0286C11.3863 11.9773 11.461 11.9494 11.5381 11.9494C11.5508 11.9494 11.5635 11.9494 11.5762 11.9494C11.7311 11.9494 11.8567 11.8255 11.8567 11.6705V11.6705C11.8567 11.5712 11.9092 11.4776 11.9949 11.4273C12.3356 11.2274 12.6778 11.0299 13.0205 10.8335C13.2365 10.7082 13.4525 10.5829 13.6751 10.4538C14.0483 10.2848 14.186 10.2225 14.4019 10.2549C14.6094 10.286 14.6329 10.5709 14.4504 10.6742V10.6742C11.9567 12.1636 10.445 14.2087 9.66611 17.0191C9.22033 20.2931 9.84196 22.8259 11.7994 25.4683C13.3712 27.2008 15.5224 28.2087 17.8364 28.3346C18.1616 28.341 18.4868 28.3438 18.812 28.3432C18.9825 28.3435 19.153 28.3438 19.3287 28.3441C20.8154 28.317 22.1028 27.9818 23.467 27.3789C23.348 27.4143 23.229 27.4498 23.1063 27.4863C22.0428 27.7194 20.9365 27.6495 19.8525 27.6544C19.484 27.6612 19.484 27.6612 19.108 27.6682C18.092 27.6729 17.1475 27.5884 16.2048 27.4147C15.6297 27.3088 15.6653 26.8198 16.238 26.9381V26.9381C23.6234 27.5359 28.7042 23.9649 34.2011 19.4437C33.2211 20.0874 32.2541 20.7372 31.3259 21.4551C30.5635 22.0395 29.7811 22.5023 28.9436 22.9705C28.7003 23.1337 28.4583 23.2989 28.2179 23.4664C27.7928 23.745 27.6746 23.8224 27.4768 23.8439C27.3198 23.8609 27.1911 23.7258 27.1911 23.5679V23.5679C27.1911 23.4712 27.2399 23.3793 27.321 23.3267C27.5791 23.1594 27.6397 23.1267 28.1084 22.874C30.3395 21.5708 32.2077 19.7035 34.0992 17.9559C34.5474 17.5442 35.0007 17.1417 35.4607 16.7436C36.0252 16.2519 36.5735 15.7464 37.1148 15.229C38.9884 13.4398 40.9213 11.7775 42.9635 10.186C41.8968 10.8705 40.8778 11.5856 39.8967 12.3903C37.5189 14.3326 37.5189 14.3326 36.277 14.8046C35.686 15.0559 35.3591 15.3326 34.8993 15.7792C32.7398 17.7592 30.3709 19.4231 27.8756 20.9454C27.5883 21.1219 27.5883 21.1219 27.2952 21.302C27.0276 21.4618 27.0276 21.4618 26.7547 21.6247C26.5957 21.7198 26.4368 21.815 26.273 21.913C26.115 21.9831 26.0843 21.9967 25.9738 22.0457C25.9124 22.073 25.8428 22.0717 25.7828 22.0415V22.0415C25.6294 21.9643 25.6151 21.75 25.7577 21.6543C26.3024 21.2889 26.8494 20.922 27.4101 20.5458C27.0764 20.7253 27.0764 20.7253 26.7358 20.9083C23.3736 22.6827 20.2034 23.4783 16.4286 22.7862C16.3181 22.7659 16.238 22.6706 16.238 22.5582V22.5582C16.238 22.4237 16.3508 22.3151 16.4851 22.3222C16.6474 22.3307 16.8107 22.3392 16.9773 22.348C22.9017 22.561 26.9861 19.3624 31.3533 15.6966C31.248 15.7781 31.1428 15.8597 31.0344 15.9437C29.9753 16.7551 28.8934 17.5058 27.7661 18.2176C27.6105 18.3186 27.4549 18.4197 27.2946 18.5237C26.9376 18.7497 26.5706 18.9594 26.2014 19.1647C26.1353 19.2014 26.0564 19.2035 25.9888 19.1695V19.1695C25.837 19.0931 25.8175 18.8833 25.9536 18.7815C26.0311 18.7235 26.1091 18.6651 26.1882 18.606C27.8131 17.3771 29.3325 16.0792 30.812 14.6778C31.339 14.1809 31.8738 13.6927 32.4075 13.2031C33.4533 12.2398 34.4922 11.2692 35.5291 10.2963C35.6701 10.164 35.8111 10.0318 35.9564 9.89561C36.089 9.77096 36.2217 9.64631 36.3583 9.51789C36.4758 9.4075 36.5933 9.29711 36.7143 9.18338C37.0507 8.86181 37.3794 8.53378 37.7061 8.20225C36.6352 9.0331 35.5738 9.87017 34.5394 10.7461C34.467 10.8073 34.3663 10.8202 34.2817 10.7776V10.7776C34.1361 10.7044 34.1076 10.5068 34.2253 10.3942C37.5377 7.22573 37.5815 7.19268 39.4586 5.77762C39.6794 5.60657 39.9002 5.43552 40.1277 5.25928C44.8272 1.68947 49.9501 -0.339005 55.8882 0.0466637Z"/>
</mask>
<path d="M55.8882 0.0466637C56.1457 0.0568927 56.4033 0.0671216 56.6686 0.0776605C57.9919 0.150891 59.0628 0.391938 60.2694 0.928349C60.4375 0.991995 60.6055 1.05564 60.7786 1.12122C65.7148 2.99256 69.335 6.41926 71.6196 11.1779C72.4203 13.0718 73.117 15.049 72.9835 17.122C72.9792 17.1883 72.9246 17.2395 72.8581 17.2395V17.2395C72.7988 17.2395 72.7465 17.1986 72.7331 17.1408C72.6876 16.9446 72.642 16.7476 72.5951 16.5455C72.1831 14.8072 71.7378 13.1436 71.0035 11.5086C71.0775 11.7058 71.1515 11.903 71.2277 12.1061C71.3254 12.3726 71.4231 12.6392 71.5238 12.9138C71.6686 13.305 71.6686 13.305 71.8164 13.7042C73.2821 18.0627 72.735 22.7687 70.9042 26.9191C70.4927 27.7452 70.0552 28.5503 69.5933 29.3489C69.5146 29.4872 69.4359 29.6254 69.3548 29.7679C68.7881 30.7127 68.151 31.3209 67.2794 32.0077C67.1032 32.1896 66.927 32.3714 66.7455 32.5588C63.9129 35.3394 59.7634 37.1063 55.8061 37.1188V37.1188C55.5777 37.1069 55.5175 36.8211 55.7316 36.7409C56.0706 36.6138 56.4143 36.5311 56.8192 36.4713C61.201 35.6364 65.2554 33.1941 67.8562 29.528C68.9014 27.9414 69.8619 26.0333 70.235 24.1249C70.2521 24.0377 70.1482 24.0132 70.1204 24.0975V24.0975C69.503 25.9003 68.8551 27.6021 67.5926 29.0279C67.3935 29.2527 67.1277 29.4068 66.8364 29.48V29.48C66.5531 29.5513 66.2835 29.6796 66.0733 29.8824C65.9465 30.0049 65.8561 30.1102 65.6228 30.3821C63.472 32.6182 60.099 34.5129 56.9604 34.6769C56.6393 34.6795 56.3181 34.6703 55.9972 34.6573C55.9363 34.6549 55.8882 34.6055 55.8882 34.5445V34.5445C55.8882 34.4826 55.8388 34.4313 55.7769 34.4299C55.5623 34.425 55.3468 34.4201 55.1258 34.4152C50.9688 34.2805 47.2746 33.0441 44.2685 30.0136C43.5045 29.1727 43.278 28.9235 43.2109 28.5785C43.1757 28.3979 43.4122 28.312 43.5309 28.4526V28.4526C45.6339 30.7658 48.784 32.7095 51.9564 32.9191C54.479 33.0306 56.568 32.7271 58.8036 31.9793C58.9757 31.9218 58.9451 31.8287 58.7771 31.8975V31.8975C58.0721 32.1663 57.3791 32.3109 56.6756 32.3847C56.0324 32.4522 55.8964 31.8531 56.5317 31.7322V31.7322C59.7001 31.023 62.2107 29.3648 64.0406 26.678C65.3579 24.5839 66.2544 22.4018 66.1841 19.8846C66.1728 20.0346 66.1615 20.1846 66.1499 20.3392C65.9753 21.8404 65.5618 23.0756 64.8971 24.417C64.7855 24.6452 64.7855 24.6452 64.6717 24.8781C64.3251 25.5496 64.0126 26.063 63.4606 26.4856C63.3643 26.5593 63.248 26.4551 63.3021 26.3465V26.3465C63.3857 26.178 63.4693 26.0095 63.5554 25.8359C63.6435 25.6606 63.7316 25.4853 63.8224 25.3047C64.8953 23.0699 65.1742 21.0283 65.0888 18.562C65.0604 18.874 65.0604 18.874 65.0315 19.1923C64.6863 22.3661 63.771 25.0679 61.2492 27.1817C60.8046 27.5081 60.3739 27.8059 59.9218 28.0579C59.4667 28.3117 59.2127 27.8775 59.6533 27.5993V27.5993C61.5419 26.2587 62.6971 24.0146 63.243 21.7986C63.7013 18.8923 63.3054 16.4998 61.6112 14.071C60.1365 12.2519 58.2471 10.9078 55.8882 10.6269C53.8304 10.4826 51.9566 10.4811 50.0719 11.2642C49.9837 11.3008 50.0211 11.4186 50.115 11.4012V11.4012C51.2493 11.2267 52.374 11.2385 53.5196 11.233C53.8722 11.2262 53.8722 11.2262 54.232 11.2193C55.1529 11.2148 56.0013 11.2894 56.8451 11.45C57.4622 11.5674 57.4288 12.1001 56.8162 11.9612V11.9612C56.786 11.9544 56.7486 11.9481 56.7177 11.9456C49.8083 11.3827 44.8533 14.4846 39.6776 18.7825C39.533 18.9279 39.3885 19.0734 39.2395 19.2233C39.3728 19.1216 39.5061 19.0199 39.6434 18.9151C40.9064 17.9694 42.1962 17.083 43.5249 16.2338C43.6788 16.1339 43.8327 16.0339 43.9913 15.9309C44.3375 15.7124 44.6937 15.51 45.052 15.3121C45.1159 15.2767 45.1922 15.2749 45.2574 15.3077V15.3077C45.4078 15.3834 45.4233 15.5929 45.2848 15.6887C45.2004 15.747 45.1154 15.8058 45.0292 15.8653C42.1757 17.8618 39.6199 20.1245 37.1209 22.5517C36.9813 22.6859 36.8418 22.8201 36.698 22.9584C36.5753 23.0778 36.4526 23.1972 36.3261 23.3202C35.9769 23.6122 35.6318 23.8109 35.2339 23.9998C35.1389 24.0449 35.0773 24.14 35.0773 24.2452C35.0773 24.2615 35.0773 24.2779 35.0773 24.2944C35.0773 24.4153 34.9809 24.5134 34.8599 24.5134V24.5134C34.7389 24.5134 34.6392 24.6115 34.6392 24.7325C34.6392 24.7615 34.6392 24.7907 34.6392 24.8199C34.6392 24.9056 34.6035 24.9874 34.54 25.0449C34.2266 25.3287 33.9013 25.5995 33.5713 25.8635C33.353 26.0394 33.1347 26.2153 32.9098 26.3965C32.6853 26.5752 32.4608 26.7539 32.2295 26.9381C31.8232 27.2639 31.417 27.5899 31.011 27.9162C30.8345 28.0568 30.658 28.1975 30.4762 28.3424C30.1646 28.5897 30.0684 28.6661 29.8984 28.8357C29.8663 28.8677 29.9088 28.9165 29.9453 28.8897V28.8897C30.4645 28.5096 30.9842 28.1302 31.5039 27.7509C31.6828 27.6197 31.8616 27.4886 32.046 27.3535C32.6944 26.8807 33.1664 26.5365 33.5231 26.2859C34.4403 25.6415 35.557 25.2341 36.3917 24.4859V24.4859C39.1503 22.0648 42.0114 19.7974 45.1542 17.9008C45.2899 17.8162 45.4256 17.7316 45.5654 17.6444C45.8992 17.4418 46.2424 17.2551 46.5873 17.0722C46.6502 17.0388 46.7244 17.0376 46.788 17.0696V17.0696C46.9385 17.1453 46.9526 17.3557 46.8127 17.4495C46.266 17.8163 45.717 18.1845 45.1542 18.562C45.3945 18.4399 45.6348 18.3177 45.8824 18.1918C46.201 18.0305 46.5196 17.8692 46.8382 17.7079C46.9962 17.6275 47.1542 17.5471 47.317 17.4642C48.1182 17.0593 48.9119 16.6699 49.7545 16.3578C49.9482 16.2771 50.1419 16.1964 50.3415 16.1133C51.3318 15.846 52.2663 15.8529 53.2868 15.8619C53.5804 15.8593 53.5804 15.8593 53.8799 15.8567C54.0688 15.8573 54.2577 15.8579 54.4523 15.8584C54.6229 15.8589 54.7935 15.8594 54.9693 15.8599C55.254 15.8937 55.4891 15.957 55.7168 16.0492C55.8911 16.1198 55.8306 16.3591 55.6426 16.3596V16.3596C51.4856 16.4424 47.9698 17.9759 44.7537 20.613C44.414 20.8798 44.3168 20.9561 44.1296 20.9779C43.9971 20.9934 43.9086 21.1252 43.968 21.2447V21.2447C44.0159 21.3411 44.1381 21.3757 44.2281 21.3168C44.2637 21.2936 44.3029 21.2679 44.3737 21.2217C44.8426 20.9165 45.3132 20.614 45.784 20.3116C45.9475 20.2047 46.111 20.0977 46.2794 19.9875C46.5145 19.8372 46.5145 19.8372 46.7543 19.684C46.8989 19.5905 47.0434 19.497 47.1924 19.4006C47.2813 19.3582 47.3702 19.3157 47.4605 19.2726C47.5257 19.2415 47.6006 19.2418 47.6651 19.2743V19.2743C47.8198 19.3521 47.8399 19.5657 47.7011 19.6692C47.5552 19.7781 47.409 19.8866 47.2626 19.9948C47.1254 20.0971 46.9882 20.1994 46.8468 20.3048C46.5856 20.4712 46.5048 20.5227 46.3355 20.5387C46.1677 20.5545 46.0304 20.6809 46.0304 20.8495V20.8495C46.0304 20.9358 45.9938 21.0199 45.9296 21.0777C45.6576 21.3226 45.614 21.3549 45.1815 21.6755C45.024 21.7943 44.8664 21.913 44.7041 22.0354C44.4877 22.1744 44.3812 22.2428 44.2715 22.2765C44.0193 22.3539 43.7719 22.4658 43.6669 22.7079V22.7079C43.3822 23.2264 43.1143 23.4908 42.6623 23.8659C41.8891 24.5246 41.1346 25.2003 40.3896 25.8911C40.2778 25.9944 40.166 26.0977 40.0508 26.2041C39.4883 26.724 38.9272 27.2452 38.3675 27.7681C36.0065 29.9691 33.6474 32.0423 30.9151 33.7711C32.0651 33.1401 33.1048 32.4335 34.1463 31.6358C34.3743 31.4631 34.3743 31.4631 34.6068 31.2869C35.7345 30.4272 36.8244 29.5322 37.8952 28.6015V28.6015C38.2678 28.3301 38.4993 28.8055 38.1679 29.1259C37.3891 29.8787 36.5714 30.5762 35.7191 31.263C35.2983 31.6068 34.8837 31.9585 34.4766 32.3186C31.9991 34.4972 29.1549 36.287 26.0958 37.5183C25.9599 37.5802 25.8241 37.6422 25.6842 37.706C21.631 39.4501 16.6345 39.3269 12.5139 37.9591C12.3179 37.898 12.122 37.8369 11.9201 37.774C9.32111 36.8558 6.9946 35.0472 5.06581 33.1098C4.91332 32.959 4.76083 32.8081 4.60373 32.6526C2.18114 30.0969 0.0186388 26.0015 0 22.4194C0.00765164 22.2038 0.0153033 21.9883 0.0231212 21.768C0.0254988 21.701 0.0796522 21.6479 0.146681 21.6479V21.6479C0.204599 21.6479 0.255705 21.6879 0.268784 21.7443C0.314455 21.9413 0.360292 22.1391 0.407319 22.3419C1.08873 25.323 1.08873 25.323 2.43707 28.0402C2.36816 27.906 2.29926 27.7719 2.22827 27.6338C0.167743 23.3872 -0.285915 18.4662 1.17949 13.9403C1.96902 11.7607 3.0679 9.69883 4.62769 7.98183C4.80051 7.78776 4.97332 7.5937 5.15138 7.39375C8.06267 4.28881 12.0327 1.99394 16.3449 1.77043C16.9297 1.76904 17.5107 1.7783 18.0944 1.80462C18.1589 1.80753 18.2095 1.85993 18.2095 1.9245V1.9245C18.2095 1.9848 18.1652 2.03675 18.1055 2.04522C17.8757 2.07782 17.6452 2.11054 17.4086 2.14411C17.0549 2.19791 16.7012 2.25188 16.3475 2.30598C16.1741 2.33013 16.0007 2.35428 15.8221 2.37917C14.7361 2.54935 13.8592 2.83202 12.895 3.36584C12.5139 3.5734 12.5139 3.5734 11.7883 3.86271C10.4577 4.42417 9.10418 5.23713 8.08733 6.26754C7.88271 6.47162 7.78469 6.56939 7.6758 6.61623C7.439 6.71808 7.18989 6.81214 7.087 7.04848V7.04848C6.79209 7.58903 6.45775 7.93307 6.02421 8.36757C4.79925 9.71729 3.75962 11.555 3.24189 13.3574C3.22105 13.43 3.31164 13.4619 3.34326 13.3933V13.3933C4.37818 11.2189 4.4512 11.0654 5.29714 10.3579C5.37903 10.2894 5.50393 10.3453 5.50393 10.4521V10.4521C5.50393 10.5747 5.66125 10.6274 5.7326 10.5277C5.74504 10.5103 5.75753 10.4929 5.77006 10.4753C8.08434 7.34938 11.3188 4.95878 15.2163 4.33885C15.7393 4.28947 16.257 4.25266 16.7811 4.2376C16.8437 4.2358 16.8952 4.28532 16.8952 4.3479V4.3479C16.8952 4.40744 16.9419 4.45731 17.0014 4.46013C17.1016 4.46489 17.2025 4.46968 17.3055 4.47457C21.4059 4.6913 24.3728 5.30401 27.6292 7.98183C27.8355 8.14336 27.8355 8.14336 28.0459 8.30816C28.6272 8.77288 29.1041 9.24604 29.5234 9.8514C29.572 9.92158 29.5779 10.0116 29.5399 10.088V10.088C29.4645 10.2398 29.259 10.2682 29.1464 10.1415C29.1387 10.1328 29.131 10.1241 29.1233 10.1154C28.0875 9.00603 26.9809 8.26686 25.6576 7.54099C25.5133 7.45688 25.369 7.37278 25.2204 7.28612C22.3341 5.69215 18.5796 5.45811 15.4274 6.33798C14.0435 6.77633 12.8143 7.33899 11.6377 8.20225C11.7628 8.13036 11.8879 8.05848 12.0168 7.98441C13.5021 7.17894 15.04 6.64623 16.6662 6.47736C17.2326 6.41855 17.3624 6.97415 16.7993 7.05881V7.05881C14.7252 7.45431 12.9861 8.26402 11.3835 9.64532C11.2254 9.77097 11.1293 9.84733 11.0313 9.90704C10.612 10.1623 10.199 10.3625 9.99858 10.8105V10.8105C9.93812 10.9457 9.84098 11.128 9.75182 11.2462C9.59402 11.4555 9.43293 11.6623 9.26906 11.8668C8.02001 13.5261 7.32908 15.1805 7.03737 17.2395C7.08283 17.0742 7.1283 16.9088 7.17514 16.7384C7.66893 15.0878 8.31433 13.7376 9.42352 12.4182C9.43896 12.3998 9.45778 12.3849 9.47921 12.3741V12.3741C9.62392 12.3013 9.78143 12.4429 9.72066 12.5931C9.50729 13.1202 9.2697 13.6298 9.00893 14.1398C8.4521 15.2562 8.1582 16.1691 8.12807 17.3437C8.12577 17.4334 8.24181 17.4464 8.26275 17.3592V17.3592C8.81538 15.3003 9.72535 13.4647 11.329 12.0286C11.3863 11.9773 11.461 11.9494 11.5381 11.9494C11.5508 11.9494 11.5635 11.9494 11.5762 11.9494C11.7311 11.9494 11.8567 11.8255 11.8567 11.6705V11.6705C11.8567 11.5712 11.9092 11.4776 11.9949 11.4273C12.3356 11.2274 12.6778 11.0299 13.0205 10.8335C13.2365 10.7082 13.4525 10.5829 13.6751 10.4538C14.0483 10.2848 14.186 10.2225 14.4019 10.2549C14.6094 10.286 14.6329 10.5709 14.4504 10.6742V10.6742C11.9567 12.1636 10.445 14.2087 9.66611 17.0191C9.22033 20.2931 9.84196 22.8259 11.7994 25.4683C13.3712 27.2008 15.5224 28.2087 17.8364 28.3346C18.1616 28.341 18.4868 28.3438 18.812 28.3432C18.9825 28.3435 19.153 28.3438 19.3287 28.3441C20.8154 28.317 22.1028 27.9818 23.467 27.3789C23.348 27.4143 23.229 27.4498 23.1063 27.4863C22.0428 27.7194 20.9365 27.6495 19.8525 27.6544C19.484 27.6612 19.484 27.6612 19.108 27.6682C18.092 27.6729 17.1475 27.5884 16.2048 27.4147C15.6297 27.3088 15.6653 26.8198 16.238 26.9381V26.9381C23.6234 27.5359 28.7042 23.9649 34.2011 19.4437C33.2211 20.0874 32.2541 20.7372 31.3259 21.4551C30.5635 22.0395 29.7811 22.5023 28.9436 22.9705C28.7003 23.1337 28.4583 23.2989 28.2179 23.4664C27.7928 23.745 27.6746 23.8224 27.4768 23.8439C27.3198 23.8609 27.1911 23.7258 27.1911 23.5679V23.5679C27.1911 23.4712 27.2399 23.3793 27.321 23.3267C27.5791 23.1594 27.6397 23.1267 28.1084 22.874C30.3395 21.5708 32.2077 19.7035 34.0992 17.9559C34.5474 17.5442 35.0007 17.1417 35.4607 16.7436C36.0252 16.2519 36.5735 15.7464 37.1148 15.229C38.9884 13.4398 40.9213 11.7775 42.9635 10.186C41.8968 10.8705 40.8778 11.5856 39.8967 12.3903C37.5189 14.3326 37.5189 14.3326 36.277 14.8046C35.686 15.0559 35.3591 15.3326 34.8993 15.7792C32.7398 17.7592 30.3709 19.4231 27.8756 20.9454C27.5883 21.1219 27.5883 21.1219 27.2952 21.302C27.0276 21.4618 27.0276 21.4618 26.7547 21.6247C26.5957 21.7198 26.4368 21.815 26.273 21.913C26.115 21.9831 26.0843 21.9967 25.9738 22.0457C25.9124 22.073 25.8428 22.0717 25.7828 22.0415V22.0415C25.6294 21.9643 25.6151 21.75 25.7577 21.6543C26.3024 21.2889 26.8494 20.922 27.4101 20.5458C27.0764 20.7253 27.0764 20.7253 26.7358 20.9083C23.3736 22.6827 20.2034 23.4783 16.4286 22.7862C16.3181 22.7659 16.238 22.6706 16.238 22.5582V22.5582C16.238 22.4237 16.3508 22.3151 16.4851 22.3222C16.6474 22.3307 16.8107 22.3392 16.9773 22.348C22.9017 22.561 26.9861 19.3624 31.3533 15.6966C31.248 15.7781 31.1428 15.8597 31.0344 15.9437C29.9753 16.7551 28.8934 17.5058 27.7661 18.2176C27.6105 18.3186 27.4549 18.4197 27.2946 18.5237C26.9376 18.7497 26.5706 18.9594 26.2014 19.1647C26.1353 19.2014 26.0564 19.2035 25.9888 19.1695V19.1695C25.837 19.0931 25.8175 18.8833 25.9536 18.7815C26.0311 18.7235 26.1091 18.6651 26.1882 18.606C27.8131 17.3771 29.3325 16.0792 30.812 14.6778C31.339 14.1809 31.8738 13.6927 32.4075 13.2031C33.4533 12.2398 34.4922 11.2692 35.5291 10.2963C35.6701 10.164 35.8111 10.0318 35.9564 9.89561C36.089 9.77096 36.2217 9.64631 36.3583 9.51789C36.4758 9.4075 36.5933 9.29711 36.7143 9.18338C37.0507 8.86181 37.3794 8.53378 37.7061 8.20225C36.6352 9.0331 35.5738 9.87017 34.5394 10.7461C34.467 10.8073 34.3663 10.8202 34.2817 10.7776V10.7776C34.1361 10.7044 34.1076 10.5068 34.2253 10.3942C37.5377 7.22573 37.5815 7.19268 39.4586 5.77762C39.6794 5.60657 39.9002 5.43552 40.1277 5.25928C44.8272 1.68947 49.9501 -0.339005 55.8882 0.0466637Z" fill="#3866DC" stroke="#23577A" stroke-width="12" mask="url(#path-1-inside-1_101_1070)"/>
</svg>
